<svg width="28" height="28" viewBox="0 0 28 28" fill="none" xmlns="http://www.w3.org/2000/svg">
<g filter="url(#filter0_d_4_2)">
<circle cx="14" cy="14" r="11" fill="#03CE54"/>
<path d="M9.87505 12.6251C9.87503 11.9439 10.0437 11.2734 10.366 10.6733C10.6883 10.0732 11.1541 9.56224 11.722 9.18607C12.2899 8.8099 12.9421 8.58021 13.6203 8.51751C14.2986 8.45481 14.9818 8.56106 15.609 8.82676C16.2362 9.09246 16.7879 9.50935 17.2147 10.0402C17.6415 10.571 17.9302 11.1993 18.0551 11.8689C18.1799 12.5386 18.137 13.2287 17.9301 13.8777C17.7233 14.5267 17.3589 15.1143 16.8696 15.5882C16.73 15.7229 16.6228 15.8632 16.5582 16.0137L16.0343 17.2299C16.0077 17.2915 15.9637 17.344 15.9076 17.3809C15.8515 17.4178 15.7859 17.4375 15.7187 17.4375H12.2813C12.214 17.4376 12.1482 17.418 12.092 17.3811C12.0358 17.3442 11.9917 17.2916 11.965 17.2299L11.4418 16.013C11.3669 15.8523 11.2611 15.708 11.1304 15.5882C10.7328 15.204 10.4167 14.7436 10.201 14.2345C9.98529 13.7254 9.87444 13.178 9.87505 12.6251V12.6251ZM11.9375 18.4688C11.9375 18.3776 11.9737 18.2902 12.0382 18.2257C12.1027 18.1612 12.1901 18.125 12.2813 18.125H15.7187C15.8099 18.125 15.8973 18.1612 15.9618 18.2257C16.0263 18.2902 16.0625 18.3776 16.0625 18.4688C16.0625 18.5599 16.0263 18.6474 15.9618 18.7118C15.8973 18.7763 15.8099 18.8125 15.7187 18.8125L15.5647 19.1198C15.5077 19.234 15.42 19.33 15.3114 19.3972C15.2029 19.4643 15.0778 19.4999 14.9501 19.5H13.0499C12.9222 19.4999 12.7971 19.4643 12.6886 19.3972C12.58 19.33 12.4923 19.234 12.4353 19.1198L12.2813 18.8125C12.1901 18.8125 12.1027 18.7763 12.0382 18.7118C11.9737 18.6474 11.9375 18.5599 11.9375 18.4688Z" fill="white"/>
</g>
<defs>
<filter id="filter0_d_4_2" x="-1.90735e-06" y="0" width="28" height="28" filterUnits="userSpaceOnUse" color-interpolation-filters="sRGB">
<feFlood flood-opacity="0" result="BackgroundImageFix"/>
<feColorMatrix in="SourceAlpha" type="matrix" values="0 0 0 0 0 0 0 0 0 0 0 0 0 0 0 0 0 0 127 0" result="hardAlpha"/>
<feOffset/>
<feGaussianBlur stdDeviation="1.5"/>
<feComposite in2="hardAlpha" operator="out"/>
<feColorMatrix type="matrix" values="0 0 0 0 0 0 0 0 0 0 0 0 0 0 0 0 0 0 0.4 0"/>
<feBlend mode="normal" in2="BackgroundImageFix" result="effect1_dropShadow_4_2"/>
<feBlend mode="normal" in="SourceGraphic" in2="effect1_dropShadow_4_2" result="shape"/>
</filter>
</defs>
</svg>
