<svg width="40" height="40" viewBox="0 0 40 40" fill="none" xmlns="http://www.w3.org/2000/svg">
<path fill-rule="evenodd" clip-rule="evenodd" d="M8.89375 4.60804C11.8397 1.6621 15.8338 0.00491496 20 0C24.1662 0.00491496 28.1603 1.6621 31.1062 4.60804C34.0522 7.55397 35.7094 11.5481 35.7143 15.7143C35.7192 19.1173 34.6076 22.428 32.55 25.1386L32.5486 25.1429C32.5486 25.1429 32.1186 25.7057 32.0557 25.7814L20 40L7.95 25.7886C7.88 25.7071 7.45143 25.1429 7.45143 25.1429C5.39283 22.4311 4.28072 19.1189 4.28571 15.7143C4.29063 11.5481 5.94782 7.55397 8.89375 4.60804Z" fill="#CE0303"/>
<path d="M11.2077 13.9791V13.9786C11.2077 13.444 11.2554 12.9211 11.3467 12.4132L23.2517 24.3195H16.1282H16.1274C16.0737 24.3196 16.0212 24.304 15.9763 24.2745C15.9315 24.2451 15.8963 24.2032 15.875 24.154C15.875 24.1539 15.875 24.1539 15.8749 24.1538L14.6966 21.4131L14.6936 21.4062L14.6904 21.3994C14.4949 20.9799 14.2191 20.6029 13.8786 20.2896C13.0333 19.4717 12.3612 18.492 11.9024 17.409C11.4427 16.324 11.2064 15.1575 11.2077 13.9791ZM28.7707 13.9219C28.7892 16.0566 28.0307 18.119 26.6466 19.7292L14.247 7.33108C15.8574 5.9466 17.9201 5.18782 20.0551 5.20637C22.3604 5.2264 24.5656 6.15108 26.1958 7.78123C27.826 9.41139 28.7506 11.6166 28.7707 13.9219ZM23.8718 27.417H23.5631L23.4248 27.6929L23.0778 28.3852L23.0776 28.3857C22.9906 28.5599 22.8568 28.7064 22.6912 28.8088C22.5256 28.9113 22.3348 28.9656 22.14 28.9657H17.86C17.6652 28.9656 17.4744 28.9113 17.3088 28.8088C17.1432 28.7064 17.0094 28.5599 16.9224 28.3857L16.9222 28.3852L16.5752 27.6929L16.4369 27.417H16.1282C16.0555 27.417 15.9857 27.3881 15.9342 27.3366C15.8828 27.2851 15.8539 27.2154 15.8539 27.1426C15.8539 27.0698 15.8828 27.0001 15.9342 26.9486C15.9857 26.8972 16.0555 26.8682 16.1282 26.8682H23.8718C23.9445 26.8682 24.0143 26.8972 24.0658 26.9486C24.1172 27.0001 24.1461 27.0698 24.1461 27.1426C24.1461 27.2154 24.1172 27.2851 24.0658 27.3366C24.0143 27.3881 23.9445 27.417 23.8718 27.417ZM10.8131 7.52937C10.8465 7.54321 10.8769 7.56349 10.9024 7.58905L29.4869 26.1736C29.5386 26.2252 29.5676 26.2952 29.5676 26.3682C29.5676 26.4413 29.5386 26.5113 29.4869 26.5629C29.4353 26.6146 29.3653 26.6436 29.2923 26.6436C29.2192 26.6436 29.1492 26.6146 29.0976 26.5629L10.5131 7.97843C10.4875 7.95287 10.4672 7.92251 10.4534 7.88911C10.4395 7.8557 10.4324 7.8199 10.4324 7.78374C10.4324 7.74759 10.4395 7.71178 10.4534 7.67838C10.4672 7.64497 10.4875 7.61462 10.5131 7.58905C10.5386 7.56349 10.569 7.54321 10.6024 7.52937C10.6358 7.51553 10.6716 7.50841 10.7077 7.50841C10.7439 7.50841 10.7797 7.51553 10.8131 7.52937Z" fill="white" stroke="white"/>
</svg>
