<svg width="28" height="28" viewBox="0 0 28 28" fill="none" xmlns="http://www.w3.org/2000/svg">
<g filter="url(#filter0_d_4_7)">
<circle cx="14" cy="14" r="11" fill="#CE0303"/>
<path d="M10.3717 12.6201V12.6195C10.3717 12.591 10.372 12.5625 10.3727 12.5342L14.7739 16.9359H12.382L11.8991 15.8127L11.8961 15.8058L11.893 15.799C11.7913 15.5808 11.6481 15.3847 11.4713 15.2214C11.1237 14.8844 10.8472 14.481 10.6583 14.0352C10.4687 13.5875 10.3712 13.1062 10.3717 12.6201ZM16.9286 14.7572L11.8613 9.69044C12.4857 9.23793 13.2422 8.99336 14.0221 9.00014C14.9734 9.0084 15.8834 9.38999 16.5561 10.0627C17.2289 10.7354 17.6104 11.6454 17.6187 12.5968C17.6255 13.3765 17.381 14.1329 16.9286 14.7572ZM12.7449 18.6239H15.2551L15.119 18.8955L15.1187 18.896C15.1031 18.9272 15.0791 18.9535 15.0494 18.9719C15.0197 18.9902 14.9855 19 14.9506 19H13.0494C13.0145 19 12.9803 18.9902 12.9506 18.9719C12.9209 18.9535 12.8969 18.9272 12.8813 18.896L12.881 18.8955L12.7449 18.6239Z" fill="white" stroke="white"/>
</g>
<defs>
<filter id="filter0_d_4_7" x="0" y="0" width="28" height="28" filterUnits="userSpaceOnUse" color-interpolation-filters="sRGB">
<feFlood flood-opacity="0" result="BackgroundImageFix"/>
<feColorMatrix in="SourceAlpha" type="matrix" values="0 0 0 0 0 0 0 0 0 0 0 0 0 0 0 0 0 0 127 0" result="hardAlpha"/>
<feOffset/>
<feGaussianBlur stdDeviation="1.5"/>
<feComposite in2="hardAlpha" operator="out"/>
<feColorMatrix type="matrix" values="0 0 0 0 0 0 0 0 0 0 0 0 0 0 0 0 0 0 0.4 0"/>
<feBlend mode="normal" in2="BackgroundImageFix" result="effect1_dropShadow_4_7"/>
<feBlend mode="normal" in="SourceGraphic" in2="effect1_dropShadow_4_7" result="shape"/>
</filter>
</defs>
</svg>
