<svg width="40" height="40" viewBox="0 0 40 40" fill="none" xmlns="http://www.w3.org/2000/svg">
<path fill-rule="evenodd" clip-rule="evenodd" d="M8.89375 4.60804C11.8397 1.6621 15.8338 0.00491496 20 0C24.1662 0.00491496 28.1603 1.6621 31.1062 4.60804C34.0522 7.55397 35.7094 11.5481 35.7143 15.7143C35.7192 19.1173 34.6076 22.428 32.55 25.1386L32.5486 25.1429C32.5486 25.1429 32.1186 25.7057 32.0557 25.7814L20 40L7.95 25.7886C7.88 25.7071 7.45143 25.1429 7.45143 25.1429C5.39283 22.4311 4.28072 19.1189 4.28571 15.7143C4.29063 11.5481 5.94782 7.55397 8.89375 4.60804Z" fill="#03CE54"/>
<path d="M10.7153 13.9911C10.7152 12.4579 11.0948 10.9485 11.8203 9.5978C12.5457 8.24706 13.5943 7.097 14.8725 6.25029C16.1507 5.40358 17.6187 4.88658 19.1454 4.74546C20.6721 4.60433 22.21 4.84348 23.6217 5.44154C25.0335 6.03959 26.2751 6.97795 27.2359 8.17282C28.1966 9.36769 28.8465 10.7819 29.1275 12.2891C29.4085 13.7963 29.3119 15.3497 28.8462 16.8105C28.3806 18.2713 27.5605 19.594 26.4591 20.6606C26.145 20.9639 25.9036 21.2796 25.7581 21.6185L24.5789 24.356C24.5191 24.4947 24.42 24.6129 24.2937 24.6959C24.1675 24.779 24.0197 24.8233 23.8686 24.8233H16.1314C15.98 24.8236 15.8319 24.7794 15.7054 24.6964C15.5788 24.6133 15.4795 24.4949 15.4195 24.356L14.2419 21.617C14.0733 21.2552 13.8351 20.9303 13.5409 20.6606C12.6459 19.7959 11.9344 18.7595 11.4489 17.6136C10.9634 16.4677 10.7139 15.2356 10.7153 13.9911V13.9911ZM15.3576 27.1445C15.3576 26.9393 15.4391 26.7425 15.5842 26.5974C15.7294 26.4523 15.9262 26.3707 16.1314 26.3707H23.8686C24.0739 26.3707 24.2707 26.4523 24.4158 26.5974C24.5609 26.7425 24.6424 26.9393 24.6424 27.1445C24.6424 27.3497 24.5609 27.5465 24.4158 27.6916C24.2707 27.8367 24.0739 27.9182 23.8686 27.9182L23.522 28.6099C23.3936 28.8669 23.1962 29.0831 22.9518 29.2342C22.7075 29.3854 22.4259 29.4655 22.1386 29.4657H17.8614C17.5741 29.4655 17.2925 29.3854 17.0482 29.2342C16.8038 29.0831 16.6064 28.8669 16.478 28.6099L16.1314 27.9182C15.9262 27.9182 15.7294 27.8367 15.5842 27.6916C15.4391 27.5465 15.3576 27.3497 15.3576 27.1445Z" fill="white"/>
</svg>
