<svg width="14" height="14" viewBox="0 0 14 14" fill="none" xmlns="http://www.w3.org/2000/svg">
<path d="M10.5858 12.3515H0.882154V2.64785H6.71319L7.59534 1.76569H0.882154C0.648192 1.76569 0.423813 1.85863 0.258377 2.02407C0.0929409 2.18951 0 2.41389 0 2.64785V12.3515C0 12.5855 0.0929409 12.8099 0.258377 12.9753C0.423813 13.1407 0.648192 13.2337 0.882154 13.2337H10.5858C10.8198 13.2337 11.0442 13.1407 11.2096 12.9753C11.3751 12.8099 11.468 12.5855 11.468 12.3515V5.73538L10.5858 6.61754V12.3515Z" fill="#3F3F41"/>
<path d="M13.0251 1.69513L11.5386 0.208697C11.4727 0.142549 11.3943 0.0900664 11.308 0.0542571C11.2217 0.0184479 11.1292 1.52588e-05 11.0358 1.52588e-05C10.9424 1.52588e-05 10.8499 0.0184479 10.7636 0.0542571C10.6773 0.0900664 10.5989 0.142549 10.533 0.208697L4.48582 6.29115L3.99623 8.41272C3.97537 8.51557 3.97756 8.62175 4.00265 8.72364C4.02773 8.82554 4.07509 8.9206 4.14131 9.00201C4.20753 9.08341 4.29096 9.14912 4.38561 9.19443C4.48027 9.23973 4.58378 9.26349 4.68872 9.264C4.74295 9.26998 4.79768 9.26998 4.85191 9.264L6.99114 8.79205L13.0251 2.70078C13.0912 2.63481 13.1437 2.55644 13.1795 2.47016C13.2153 2.38387 13.2337 2.29137 13.2337 2.19795C13.2337 2.10453 13.2153 2.01203 13.1795 1.92575C13.1437 1.83946 13.0912 1.76109 13.0251 1.69513ZM6.53242 7.97606L4.91808 8.33333L5.29299 6.73222L9.8449 2.14943L11.0887 3.39327L6.53242 7.97606ZM11.5872 2.89485L10.3433 1.65102L11.027 0.954116L12.2796 2.20677L11.5872 2.89485Z" fill="#3F3F41"/>
</svg>
