<svg width="46" height="46" viewBox="0 0 46 46" fill="none" xmlns="http://www.w3.org/2000/svg">
	<circle cx="24.1128" cy="23.3297" r="16.9734" fill="#363740"/>
	<path d="M16.5011 25.8739L15.4778 30.2904C15.4425 30.4518 15.4437 30.6191 15.4813 30.7801C15.5189 30.941 15.592 31.0915 15.6953 31.2205C15.7985 31.3495 15.9293 31.4539 16.078 31.5259C16.2267 31.598 16.3897 31.6359 16.555 31.6369C16.632 31.6447 16.7095 31.6447 16.7866 31.6369L21.23 30.6135L29.7614 22.1145L25.0002 17.364L16.5011 25.8739Z" fill="white"/>
	<path d="M32.4436 17.8595L29.2658 14.6817C29.0569 14.4739 28.7742 14.3572 28.4795 14.3572C28.1848 14.3572 27.902 14.4739 27.6931 14.6817L25.9265 16.4483L30.6823 21.2042L32.4489 19.4376C32.5523 19.3337 32.6342 19.2104 32.6899 19.0748C32.7456 18.9392 32.774 18.794 32.7735 18.6474C32.773 18.5008 32.7436 18.3558 32.687 18.2206C32.6304 18.0854 32.5476 17.9627 32.4436 17.8595Z" fill="white"/>
</svg>
