<svg width="40" height="40" viewBox="0 0 40 40" fill="none" xmlns="http://www.w3.org/2000/svg">
<path d="M15.4687 20C15.4687 21.1603 15.9297 22.2731 16.7501 23.0936C17.5706 23.9141 18.6834 24.375 19.8437 24.375C21.0041 24.375 22.1169 23.9141 22.9373 23.0936C23.7578 22.2731 24.2187 21.1603 24.2187 20C24.2187 18.8397 23.7578 17.7269 22.9373 16.9064C22.1169 16.0859 21.0041 15.625 19.8437 15.625C18.6834 15.625 17.5706 16.0859 16.7501 16.9064C15.9297 17.7269 15.4687 18.8397 15.4687 20V20ZM36.8047 18.9922C33.1015 11.1914 27.5039 7.26562 20 7.26562C12.4922 7.26562 6.89842 11.1914 3.19529 18.9961C3.04676 19.3106 2.96973 19.6541 2.96973 20.002C2.96973 20.3498 3.04676 20.6933 3.19529 21.0078C6.89842 28.8086 12.4961 32.7344 20 32.7344C27.5078 32.7344 33.1015 28.8086 36.8047 21.0039C37.1055 20.3711 37.1055 19.6367 36.8047 18.9922V18.9922ZM19.8437 26.875C16.0469 26.875 12.9687 23.7969 12.9687 20C12.9687 16.2031 16.0469 13.125 19.8437 13.125C23.6406 13.125 26.7187 16.2031 26.7187 20C26.7187 23.7969 23.6406 26.875 19.8437 26.875Z" fill="#717381"/>
</svg>
