<svg width="40" height="40" viewBox="0 0 40 40" fill="none" xmlns="http://www.w3.org/2000/svg">
<path d="M19.8437 24.375C21.0041 24.375 22.1169 23.9141 22.9373 23.0936C23.7578 22.2731 24.2187 21.1603 24.2187 20C24.2187 19.8719 24.2129 19.7449 24.2019 19.6195L19.4633 24.3582C19.5887 24.3691 19.7152 24.375 19.8437 24.375ZM34.325 6.46719L32.6562 4.8C32.5976 4.74144 32.5182 4.70854 32.4353 4.70854C32.3525 4.70854 32.273 4.74144 32.2144 4.8L27.9441 9.07148C25.5884 7.86758 22.9403 7.26562 20 7.26562C12.4922 7.26562 6.89061 11.1758 3.19529 18.9961C3.04676 19.3106 2.96973 19.6541 2.96973 20.002C2.96973 20.3498 3.04676 20.6933 3.19529 21.0078C4.67186 24.118 6.44985 26.6108 8.52928 28.4863L4.39686 32.6172C4.3383 32.6758 4.3054 32.7552 4.3054 32.8381C4.3054 32.9209 4.3383 33.0004 4.39686 33.059L6.06443 34.7266C6.12303 34.7851 6.20249 34.818 6.28533 34.818C6.36818 34.818 6.44763 34.7851 6.50623 34.7266L34.325 6.90937C34.354 6.88035 34.3771 6.84589 34.3928 6.80795C34.4085 6.77001 34.4166 6.72935 34.4166 6.68828C34.4166 6.64721 34.4085 6.60655 34.3928 6.56861C34.3771 6.53067 34.354 6.49621 34.325 6.46719ZM12.9687 20C12.9686 18.8125 13.2761 17.6453 13.8612 16.6119C14.4463 15.5786 15.289 14.7144 16.3074 14.1036C17.3257 13.4928 18.4849 13.1562 19.672 13.1265C20.8591 13.0969 22.0337 13.3752 23.0812 13.9344L21.182 15.8336C20.4161 15.5883 19.5974 15.5588 18.8158 15.7482C18.0341 15.9376 17.3198 16.3387 16.7511 16.9074C16.1824 17.4761 15.7814 18.1904 15.592 18.972C15.4025 19.7536 15.4321 20.5723 15.6773 21.3383L13.7781 23.2375C13.2451 22.2417 12.9671 21.1294 12.9687 20V20Z" fill="#9FA2B4"/>
<path d="M36.8047 18.9922C35.4297 16.0964 33.7931 13.735 31.8949 11.9082L26.2645 17.5391C26.7391 18.7797 26.8443 20.1313 26.5674 21.4305C26.2904 22.7297 25.6432 23.9209 24.7039 24.8602C23.7646 25.7995 22.5735 26.4467 21.2743 26.7236C19.9751 27.0005 18.6235 26.8953 17.3828 26.4207L12.6071 31.1965C14.8227 32.2217 17.287 32.7344 20 32.7344C27.5078 32.7344 33.1094 28.8242 36.8047 21.0039C36.9533 20.6894 37.0303 20.3459 37.0303 19.998C37.0303 19.6502 36.9533 19.3067 36.8047 18.9922V18.9922Z" fill="#9FA2B4"/>
</svg>
