<svg width="29" height="29" viewBox="0 0 29 29" fill="none" xmlns="http://www.w3.org/2000/svg">
<path d="M25.8323 23.8652L18.7312 16.7641C19.8331 15.3395 20.4292 13.5977 20.4292 11.7656C20.4292 9.57266 19.5733 7.51641 18.0257 5.96602C16.478 4.41562 14.4163 3.5625 12.2261 3.5625C10.0358 3.5625 7.97412 4.41836 6.42646 5.96602C4.87607 7.51367 4.02295 9.57266 4.02295 11.7656C4.02295 13.9559 4.87881 16.0176 6.42646 17.5652C7.97412 19.1156 10.0331 19.9687 12.2261 19.9687C14.0581 19.9687 15.7972 19.3727 17.2218 18.2734L24.3229 25.3719C24.3438 25.3927 24.3685 25.4092 24.3957 25.4205C24.4229 25.4318 24.4521 25.4376 24.4815 25.4376C24.511 25.4376 24.5402 25.4318 24.5674 25.4205C24.5946 25.4092 24.6193 25.3927 24.6401 25.3719L25.8323 24.1824C25.8532 24.1616 25.8697 24.1369 25.881 24.1097C25.8922 24.0825 25.898 24.0533 25.898 24.0238C25.898 23.9944 25.8922 23.9652 25.881 23.938C25.8697 23.9108 25.8532 23.8861 25.8323 23.8652ZM16.5573 16.0969C15.3979 17.2535 13.8612 17.8906 12.2261 17.8906C10.5909 17.8906 9.0542 17.2535 7.89482 16.0969C6.73818 14.9375 6.10107 13.4008 6.10107 11.7656C6.10107 10.1305 6.73818 8.59102 7.89482 7.43437C9.0542 6.27773 10.5909 5.64062 12.2261 5.64062C13.8612 5.64062 15.4007 6.275 16.5573 7.43437C17.714 8.59375 18.3511 10.1305 18.3511 11.7656C18.3511 13.4008 17.714 14.9402 16.5573 16.0969Z" fill="#8A92A6"/>
</svg>
